<svg xmlns="http://www.w3.org/2000/svg" xmlns:xlink="http://www.w3.org/1999/xlink" width="100" zoomAndPan="magnify" viewBox="0 0 75 74.999997" height="100" preserveAspectRatio="xMidYMid meet" version="1.0"><defs><clipPath id="7820403008"><path d="M 0.996094 7.5 L 73.746094 7.5 L 73.746094 60.75 L 0.996094 60.75 Z M 0.996094 7.5 " clip-rule="nonzero"/></clipPath></defs><g clip-path="url(#7820403008)"><path fill="#000000" d="M 71.394531 55.15625 C 71.394531 56.195312 70.539062 57.046875 69.4375 57.046875 L 37.367188 58.382812 L 5.253906 57.046875 C 4.199219 57.046875 3.34375 56.195312 3.34375 55.15625 L 3.34375 15.511719 C 3.34375 14.464844 4.199219 13.613281 5.253906 13.613281 L 6.652344 13.613281 L 6.652344 53.773438 C 6.734375 54.601562 7.386719 54.898438 7.886719 54.949219 C 7.992188 54.960938 18.617188 54.40625 26.871094 54.371094 C 33.609375 54.371094 37.214844 55.792969 37.367188 55.792969 C 37.523438 55.792969 41.125 54.371094 48.078125 54.371094 C 56.117188 54.40625 66.742188 54.953125 66.847656 54.949219 C 67.628906 54.941406 68.058594 54.363281 68.082031 53.773438 L 68.082031 13.613281 L 69.484375 13.613281 C 70.539062 13.613281 71.394531 14.464844 71.394531 15.511719 Z M 34.25 52.613281 C 32.441406 52.292969 29.933594 52.011719 26.644531 52.011719 C 22.15625 52.03125 16.902344 52.207031 13.066406 52.359375 C 16.84375 51.203125 22.191406 49.855469 26.707031 49.835938 C 30.195312 49.835938 32.667969 51.265625 34.25 52.613281 Z M 9 14.351562 C 11.574219 13.3125 20.546875 9.867188 26.632812 9.867188 C 32.566406 9.933594 35.417969 12.546875 36.195312 13.402344 L 36.195312 51.175781 C 34.308594 49.449219 31.160156 47.476562 26.644531 47.476562 C 20.171875 47.503906 12.328125 50.027344 9 51.207031 Z M 61.675781 52.359375 C 57.816406 52.207031 52.492188 52.03125 47.867188 52.011719 C 44.710938 52.011719 42.277344 52.289062 40.5 52.601562 C 42.089844 51.257812 44.574219 49.835938 48.085938 49.835938 C 52.570312 49.855469 57.910156 51.203125 61.675781 52.359375 Z M 38.542969 13.402344 C 39.328125 12.542969 42.203125 9.933594 48.261719 9.867188 C 54.207031 9.867188 63.164062 13.308594 65.734375 14.351562 L 65.734375 51.207031 C 62.40625 50.027344 54.554688 47.503906 48.03125 47.476562 C 43.554688 47.476562 40.425781 49.445312 38.542969 51.167969 Z M 69.484375 11.253906 L 64.277344 11.253906 C 60.320312 9.78125 53.355469 7.507812 48.078125 7.507812 C 42.21875 7.574219 38.886719 9.867188 37.390625 11.253906 L 37.34375 11.253906 C 35.835938 9.871094 32.464844 7.574219 26.476562 7.507812 C 21.324219 7.507812 14.398438 9.78125 10.453125 11.253906 L 5.253906 11.253906 C 2.90625 11.253906 0.996094 13.164062 0.996094 15.511719 L 0.996094 55.152344 C 0.996094 57.496094 2.90625 59.40625 5.199219 59.40625 C 5.203125 59.40625 37.320312 60.742188 37.320312 60.742188 C 37.335938 60.742188 37.351562 60.742188 37.367188 60.742188 C 37.382812 60.742188 37.398438 60.742188 37.417969 60.742188 L 69.484375 59.40625 C 71.832031 59.40625 73.742188 57.5 73.742188 55.152344 L 73.742188 15.511719 C 73.742188 13.164062 71.832031 11.253906 69.484375 11.253906 " fill-opacity="1" fill-rule="nonzero"/></g></svg>