<svg xmlns="http://www.w3.org/2000/svg" xmlns:xlink="http://www.w3.org/1999/xlink" width="500" zoomAndPan="magnify" viewBox="0 0 375 374.999991" height="500" preserveAspectRatio="xMidYMid meet" version="1.0"><defs><clipPath id="adb36d31c5"><path d="M 4.601562 7.527344 L 369 7.527344 L 369 367.4375 L 4.601562 367.4375 Z M 4.601562 7.527344 " clip-rule="nonzero"/></clipPath></defs><g clip-path="url(#adb36d31c5)"><path fill="#ffffff" d="M 361.183594 167.511719 C 371.136719 177.464844 371.136719 193.601562 361.183594 203.554688 L 204.644531 360.089844 C 199.667969 365.066406 193.140625 367.554688 186.613281 367.554688 C 180.109375 367.554688 173.578125 365.066406 168.601562 360.089844 L 12.066406 203.554688 C 2.113281 193.601562 2.113281 177.464844 12.066406 167.511719 C 22.019531 157.558594 38.15625 157.558594 48.132812 167.511719 L 186.613281 306.011719 L 325.113281 167.511719 C 335.09375 157.558594 351.230469 157.558594 361.183594 167.511719 Z M 168.601562 207.570312 C 173.578125 212.546875 180.109375 215.035156 186.613281 215.035156 C 193.140625 215.035156 199.667969 212.546875 204.644531 207.570312 L 361.183594 51.058594 C 371.136719 41.078125 371.136719 24.941406 361.183594 14.988281 C 351.230469 5.039062 335.09375 5.039062 325.113281 14.988281 L 186.613281 153.492188 L 48.132812 14.988281 C 38.15625 5.039062 22.019531 5.039062 12.066406 14.988281 C 2.113281 24.941406 2.113281 41.078125 12.066406 51.058594 Z M 168.601562 207.570312 " fill-opacity="1" fill-rule="nonzero"/></g></svg>