<svg xmlns="http://www.w3.org/2000/svg" xmlns:xlink="http://www.w3.org/1999/xlink" width="100" zoomAndPan="magnify" viewBox="0 0 75 74.999997" height="100" preserveAspectRatio="xMidYMid meet" version="1.0"><defs><clipPath id="0a71af6d2d"><path d="M 0 7.890625 L 75 7.890625 L 75 61 L 0 61 Z M 0 7.890625 " clip-rule="nonzero"/></clipPath><clipPath id="22fd274506"><path d="M 35 29 L 40 29 L 40 67.140625 L 35 67.140625 Z M 35 29 " clip-rule="nonzero"/></clipPath></defs><g clip-path="url(#0a71af6d2d)"><path fill="#000000" d="M 73.78125 49.953125 C 73.382812 51.890625 72.503906 53.722656 71.238281 55.238281 C 71.011719 55.507812 70.773438 55.777344 70.523438 56.023438 C 68.8125 57.738281 66.644531 58.875 64.273438 59.3125 L 64.21875 59.324219 C 63.503906 59.453125 62.785156 59.515625 62.085938 59.515625 L 61.230469 59.515625 C 60.226562 59.515625 59.414062 58.699219 59.414062 57.699219 L 59.414062 35.140625 C 59.414062 23.046875 49.570312 13.203125 37.476562 13.203125 C 25.375 13.203125 15.535156 23.046875 15.535156 35.140625 L 15.535156 57.699219 C 15.535156 58.699219 14.71875 59.515625 13.71875 59.515625 L 12.863281 59.515625 C 12.160156 59.515625 11.441406 59.453125 10.730469 59.324219 C 10.722656 59.320312 10.6875 59.320312 10.679688 59.3125 C 8.304688 58.875 6.140625 57.738281 4.421875 56.023438 C 3.871094 55.464844 3.363281 54.847656 2.925781 54.183594 C 1.636719 52.238281 0.925781 49.890625 0.925781 47.578125 C 0.925781 41.820312 5.027344 36.886719 10.679688 35.84375 C 10.855469 35.808594 10.984375 35.65625 10.984375 35.480469 L 10.984375 35.140625 C 10.984375 28.074219 13.742188 21.421875 18.753906 16.417969 C 23.761719 11.40625 30.410156 8.648438 37.476562 8.648438 C 37.476562 8.648438 37.480469 8.648438 37.484375 8.648438 C 52.085938 8.65625 63.96875 20.644531 63.96875 35.371094 L 63.96875 35.480469 C 63.96875 35.65625 64.09375 35.808594 64.265625 35.84375 C 69.917969 36.886719 74.023438 41.820312 74.023438 47.578125 C 74.023438 48.371094 73.9375 49.167969 73.78125 49.953125 Z M 64.707031 35.175781 C 64.652344 27.992188 61.820312 21.207031 56.710938 16.03125 C 51.542969 10.800781 44.714844 7.914062 37.484375 7.910156 C 37.480469 7.910156 37.480469 7.910156 37.476562 7.910156 C 30.214844 7.910156 23.382812 10.746094 18.234375 15.894531 C 13.082031 21.042969 10.246094 27.875 10.246094 35.140625 L 10.246094 35.175781 C 4.398438 36.398438 0.1875 41.566406 0.1875 47.578125 C 0.1875 50.039062 0.941406 52.53125 2.308594 54.59375 C 2.777344 55.296875 3.308594 55.953125 3.898438 56.542969 C 5.726562 58.363281 8.019531 59.574219 10.550781 60.042969 C 10.570312 60.046875 10.59375 60.046875 10.597656 60.046875 C 11.359375 60.183594 12.117188 60.253906 12.863281 60.253906 L 13.71875 60.253906 C 15.128906 60.253906 16.273438 59.109375 16.273438 57.699219 L 16.273438 35.140625 C 16.273438 23.449219 25.785156 13.941406 37.476562 13.941406 C 49.164062 13.941406 58.675781 23.449219 58.675781 35.140625 L 58.675781 57.699219 C 58.675781 59.109375 59.820312 60.253906 61.230469 60.253906 L 62.085938 60.253906 C 62.832031 60.253906 63.589844 60.183594 64.320312 60.050781 C 64.351562 60.046875 64.378906 60.046875 64.398438 60.042969 C 66.925781 59.574219 69.222656 58.363281 71.050781 56.542969 C 71.308594 56.277344 71.566406 56 71.800781 55.710938 C 73.144531 54.101562 74.082031 52.15625 74.503906 50.097656 C 74.671875 49.265625 74.761719 48.421875 74.761719 47.578125 C 74.761719 41.566406 70.546875 36.398438 64.707031 35.175781 " fill-opacity="1" fill-rule="nonzero"/></g><path fill="#99c53c" d="M 74.023438 47.578125 C 74.023438 48.371094 73.9375 49.167969 73.78125 49.953125 C 73.382812 51.890625 72.503906 53.722656 71.238281 55.238281 C 71.011719 55.507812 70.773438 55.777344 70.523438 56.023438 C 68.8125 57.738281 66.644531 58.875 64.273438 59.3125 L 64.21875 59.324219 C 63.503906 59.453125 62.785156 59.515625 62.085938 59.515625 L 61.230469 59.515625 C 60.226562 59.515625 59.414062 58.699219 59.414062 57.699219 L 59.414062 35.140625 C 59.414062 23.046875 49.570312 13.203125 37.476562 13.203125 C 25.375 13.203125 15.535156 23.046875 15.535156 35.140625 L 15.535156 57.699219 C 15.535156 58.699219 14.71875 59.515625 13.71875 59.515625 L 12.863281 59.515625 C 12.160156 59.515625 11.441406 59.453125 10.730469 59.324219 C 10.722656 59.320312 10.6875 59.320312 10.679688 59.3125 C 8.304688 58.875 6.140625 57.738281 4.421875 56.023438 C 3.871094 55.464844 3.363281 54.847656 2.925781 54.183594 C 1.636719 52.238281 0.925781 49.890625 0.925781 47.578125 C 0.925781 41.820312 5.027344 36.886719 10.679688 35.84375 C 10.855469 35.808594 10.984375 35.65625 10.984375 35.480469 L 10.984375 35.140625 C 10.984375 28.074219 13.742188 21.421875 18.753906 16.417969 C 23.761719 11.40625 30.410156 8.648438 37.476562 8.648438 C 37.476562 8.648438 37.480469 8.648438 37.484375 8.648438 C 52.085938 8.65625 63.96875 20.644531 63.96875 35.371094 L 63.96875 35.480469 C 63.96875 35.65625 64.09375 35.808594 64.265625 35.84375 C 69.917969 36.886719 74.023438 41.820312 74.023438 47.578125 " fill-opacity="1" fill-rule="nonzero"/><path fill="#000000" d="M 21.378906 51.585938 C 21.378906 52.175781 20.902344 52.652344 20.3125 52.652344 C 19.726562 52.652344 19.246094 52.175781 19.246094 51.585938 L 19.246094 45.269531 C 19.246094 44.679688 19.726562 44.203125 20.3125 44.203125 C 20.902344 44.203125 21.378906 44.679688 21.378906 45.269531 Z M 20.3125 43.464844 C 19.316406 43.464844 18.507812 44.273438 18.507812 45.269531 L 18.507812 51.585938 C 18.507812 52.585938 19.316406 53.390625 20.3125 53.390625 C 21.3125 53.390625 22.117188 52.585938 22.117188 51.585938 L 22.117188 45.269531 C 22.117188 44.273438 21.3125 43.464844 20.3125 43.464844 " fill-opacity="1" fill-rule="nonzero"/><path fill="#efee0e" d="M 21.378906 45.269531 L 21.378906 51.585938 C 21.378906 52.175781 20.902344 52.652344 20.3125 52.652344 C 19.726562 52.652344 19.246094 52.175781 19.246094 51.585938 L 19.246094 45.269531 C 19.246094 44.679688 19.726562 44.203125 20.3125 44.203125 C 20.902344 44.203125 21.378906 44.679688 21.378906 45.269531 " fill-opacity="1" fill-rule="nonzero"/><path fill="#000000" d="M 27.097656 55.996094 C 27.097656 56.585938 26.621094 57.0625 26.035156 57.0625 C 25.445312 57.0625 24.96875 56.585938 24.96875 55.996094 L 24.96875 40.859375 C 24.96875 40.269531 25.445312 39.792969 26.035156 39.792969 C 26.621094 39.792969 27.097656 40.269531 27.097656 40.859375 Z M 26.035156 39.054688 C 25.035156 39.054688 24.230469 39.859375 24.230469 40.859375 L 24.230469 55.996094 C 24.230469 56.996094 25.035156 57.800781 26.035156 57.800781 C 27.03125 57.800781 27.835938 56.996094 27.835938 55.996094 L 27.835938 40.859375 C 27.835938 39.859375 27.03125 39.054688 26.035156 39.054688 " fill-opacity="1" fill-rule="nonzero"/><path fill="#efee0e" d="M 27.097656 40.859375 L 27.097656 55.996094 C 27.097656 56.585938 26.621094 57.0625 26.035156 57.0625 C 25.445312 57.0625 24.96875 56.585938 24.96875 55.996094 L 24.96875 40.859375 C 24.96875 40.269531 25.445312 39.792969 26.035156 39.792969 C 26.621094 39.792969 27.097656 40.269531 27.097656 40.859375 " fill-opacity="1" fill-rule="nonzero"/><path fill="#000000" d="M 32.820312 60.160156 C 32.820312 60.75 32.339844 61.226562 31.753906 61.226562 C 31.164062 61.226562 30.6875 60.75 30.6875 60.160156 L 30.6875 36.691406 C 30.6875 36.105469 31.164062 35.625 31.753906 35.625 C 32.339844 35.625 32.820312 36.105469 32.820312 36.691406 Z M 31.753906 34.886719 C 30.757812 34.886719 29.949219 35.695312 29.949219 36.691406 L 29.949219 60.160156 C 29.949219 61.160156 30.757812 61.964844 31.753906 61.964844 C 32.75 61.964844 33.558594 61.160156 33.558594 60.160156 L 33.558594 36.691406 C 33.558594 35.695312 32.75 34.886719 31.753906 34.886719 " fill-opacity="1" fill-rule="nonzero"/><path fill="#efee0e" d="M 32.820312 36.691406 L 32.820312 60.160156 C 32.820312 60.75 32.339844 61.226562 31.753906 61.226562 C 31.164062 61.226562 30.6875 60.75 30.6875 60.160156 L 30.6875 36.691406 C 30.6875 36.105469 31.164062 35.625 31.753906 35.625 C 32.339844 35.625 32.820312 36.105469 32.820312 36.691406 " fill-opacity="1" fill-rule="nonzero"/><g clip-path="url(#22fd274506)"><path fill="#000000" d="M 38.542969 65.332031 C 38.542969 65.917969 38.0625 66.398438 37.476562 66.398438 C 36.886719 66.398438 36.410156 65.917969 36.410156 65.332031 L 36.410156 31.523438 C 36.410156 30.9375 36.886719 30.453125 37.476562 30.453125 C 38.0625 30.453125 38.542969 30.9375 38.542969 31.523438 Z M 37.476562 29.714844 C 36.480469 29.714844 35.667969 30.527344 35.667969 31.523438 L 35.667969 65.332031 C 35.667969 66.328125 36.480469 67.136719 37.476562 67.136719 C 38.46875 67.136719 39.28125 66.328125 39.28125 65.332031 L 39.28125 31.523438 C 39.28125 30.527344 38.46875 29.714844 37.476562 29.714844 " fill-opacity="1" fill-rule="nonzero"/></g><path fill="#efee0e" d="M 38.542969 31.523438 L 38.542969 65.332031 C 38.542969 65.917969 38.0625 66.398438 37.476562 66.398438 C 36.886719 66.398438 36.410156 65.917969 36.410156 65.332031 L 36.410156 31.523438 C 36.410156 30.9375 36.886719 30.453125 37.476562 30.453125 C 38.0625 30.453125 38.542969 30.9375 38.542969 31.523438 " fill-opacity="1" fill-rule="nonzero"/><path fill="#000000" d="M 44.261719 60.160156 C 44.261719 60.75 43.78125 61.226562 43.195312 61.226562 C 42.605469 61.226562 42.125 60.75 42.125 60.160156 L 42.125 36.691406 C 42.125 36.105469 42.605469 35.625 43.195312 35.625 C 43.78125 35.625 44.261719 36.105469 44.261719 36.691406 Z M 43.195312 34.886719 C 42.203125 34.886719 41.386719 35.695312 41.386719 36.691406 L 41.386719 60.160156 C 41.386719 61.160156 42.203125 61.964844 43.195312 61.964844 C 44.191406 61.964844 45 61.160156 45 60.160156 L 45 36.691406 C 45 35.695312 44.191406 34.886719 43.195312 34.886719 " fill-opacity="1" fill-rule="nonzero"/><path fill="#efee0e" d="M 44.261719 36.691406 L 44.261719 60.160156 C 44.261719 60.75 43.78125 61.226562 43.195312 61.226562 C 42.605469 61.226562 42.125 60.75 42.125 60.160156 L 42.125 36.691406 C 42.125 36.105469 42.605469 35.625 43.195312 35.625 C 43.78125 35.625 44.261719 36.105469 44.261719 36.691406 " fill-opacity="1" fill-rule="nonzero"/><path fill="#000000" d="M 49.984375 55.996094 C 49.984375 56.585938 49.507812 57.0625 48.914062 57.0625 C 48.328125 57.0625 47.847656 56.585938 47.847656 55.996094 L 47.847656 40.859375 C 47.847656 40.269531 48.328125 39.792969 48.914062 39.792969 C 49.507812 39.792969 49.984375 40.269531 49.984375 40.859375 Z M 48.914062 39.054688 C 47.917969 39.054688 47.109375 39.859375 47.109375 40.859375 L 47.109375 55.996094 C 47.109375 56.996094 47.917969 57.800781 48.914062 57.800781 C 49.910156 57.800781 50.722656 56.996094 50.722656 55.996094 L 50.722656 40.859375 C 50.722656 39.859375 49.910156 39.054688 48.914062 39.054688 " fill-opacity="1" fill-rule="nonzero"/><path fill="#efee0e" d="M 49.984375 40.859375 L 49.984375 55.996094 C 49.984375 56.585938 49.507812 57.0625 48.914062 57.0625 C 48.328125 57.0625 47.847656 56.585938 47.847656 55.996094 L 47.847656 40.859375 C 47.847656 40.269531 48.328125 39.792969 48.914062 39.792969 C 49.507812 39.792969 49.984375 40.269531 49.984375 40.859375 " fill-opacity="1" fill-rule="nonzero"/><path fill="#000000" d="M 55.703125 51.585938 C 55.703125 52.175781 55.222656 52.652344 54.632812 52.652344 C 54.050781 52.652344 53.566406 52.175781 53.566406 51.585938 L 53.566406 45.269531 C 53.566406 44.679688 54.050781 44.203125 54.632812 44.203125 C 55.222656 44.203125 55.703125 44.679688 55.703125 45.269531 Z M 54.632812 43.464844 C 53.640625 43.464844 52.828125 44.273438 52.828125 45.269531 L 52.828125 51.585938 C 52.828125 52.585938 53.640625 53.390625 54.632812 53.390625 C 55.628906 53.390625 56.441406 52.585938 56.441406 51.585938 L 56.441406 45.269531 C 56.441406 44.273438 55.628906 43.464844 54.632812 43.464844 " fill-opacity="1" fill-rule="nonzero"/><path fill="#efee0e" d="M 55.703125 45.269531 L 55.703125 51.585938 C 55.703125 52.175781 55.222656 52.652344 54.632812 52.652344 C 54.050781 52.652344 53.566406 52.175781 53.566406 51.585938 L 53.566406 45.269531 C 53.566406 44.679688 54.050781 44.203125 54.632812 44.203125 C 55.222656 44.203125 55.703125 44.679688 55.703125 45.269531 " fill-opacity="1" fill-rule="nonzero"/></svg>