<svg xmlns="http://www.w3.org/2000/svg" xmlns:xlink="http://www.w3.org/1999/xlink" width="200" zoomAndPan="magnify" viewBox="0 0 150 1499.999933" height="2000" preserveAspectRatio="xMidYMid meet" version="1.0"><defs><clipPath id="ea5424db2e"><path d="M 74 181 L 149.996094 181 L 149.996094 297 L 74 297 Z M 74 181 " clip-rule="nonzero"/></clipPath><clipPath id="0e1c39e3d6"><path d="M 0 0.00390625 L 149.996094 0.00390625 L 149.996094 230 L 0 230 Z M 0 0.00390625 " clip-rule="nonzero"/></clipPath><clipPath id="c3ab52d08e"><path d="M 0 248 L 149.996094 248 L 149.996094 479 L 0 479 Z M 0 248 " clip-rule="nonzero"/></clipPath><clipPath id="8ecd58988f"><path d="M 86 0.00390625 L 149.996094 0.00390625 L 149.996094 49 L 86 49 Z M 86 0.00390625 " clip-rule="nonzero"/></clipPath><clipPath id="2b68846361"><path d="M 74 437 L 149.996094 437 L 149.996094 552 L 74 552 Z M 74 437 " clip-rule="nonzero"/></clipPath><clipPath id="4d93ebd005"><path d="M 0 504 L 149.996094 504 L 149.996094 734 L 0 734 Z M 0 504 " clip-rule="nonzero"/></clipPath><clipPath id="fccefa09a6"><path d="M 74 692 L 149.996094 692 L 149.996094 808 L 74 808 Z M 74 692 " clip-rule="nonzero"/></clipPath><clipPath id="0c77919049"><path d="M 0 759 L 149.996094 759 L 149.996094 989.253906 L 0 989.253906 Z M 0 759 " clip-rule="nonzero"/></clipPath><clipPath id="473bd749f7"><path d="M 62 47 L 149.996094 47 L 149.996094 182 L 62 182 Z M 62 47 " clip-rule="nonzero"/></clipPath><clipPath id="35f9a16787"><path d="M 62 296 L 149.996094 296 L 149.996094 431 L 62 431 Z M 62 296 " clip-rule="nonzero"/></clipPath><clipPath id="60e2371fde"><path d="M 0 0.00390625 L 119 0.00390625 L 119 91 L 0 91 Z M 0 0.00390625 " clip-rule="nonzero"/></clipPath><clipPath id="cb96d2587c"><path d="M 62 551 L 149.996094 551 L 149.996094 687 L 62 687 Z M 62 551 " clip-rule="nonzero"/></clipPath><clipPath id="6d563e3489"><path d="M 62 807 L 149.996094 807 L 149.996094 942 L 62 942 Z M 62 807 " clip-rule="nonzero"/></clipPath><clipPath id="39de763273"><path d="M 75 1450 L 150 1450 L 150 1499.648438 L 75 1499.648438 Z M 75 1450 " clip-rule="nonzero"/></clipPath><clipPath id="51b68dcbb3"><path d="M 21 1470 L 70 1470 L 70 1499.648438 L 21 1499.648438 Z M 21 1470 " clip-rule="nonzero"/></clipPath><clipPath id="ba1ae2adab"><path d="M 0 757.898438 L 150 757.898438 L 150 988 L 0 988 Z M 0 757.898438 " clip-rule="nonzero"/></clipPath><clipPath id="f53029bdd9"><path d="M 0 1407 L 131 1407 L 131 1499.648438 L 0 1499.648438 Z M 0 1407 " clip-rule="nonzero"/></clipPath></defs><rect x="-15" width="180" fill="#ffffff" y="-149.999993" height="1799.99992" fill-opacity="1"/><rect x="-15" width="180" fill="#ffffff" y="-149.999993" height="1799.99992" fill-opacity="1"/><g clip-path="url(#ea5424db2e)"><path fill="#f6cd05" d="M 149.929688 181.765625 L 74.996094 239.136719 L 149.929688 296.507812 Z M 149.929688 181.765625 " fill-opacity="1" fill-rule="evenodd"/></g><g clip-path="url(#0e1c39e3d6)"><path fill="#99c53c" d="M 0.0625 229.488281 L 0.0625 0.00390625 L 149.929688 114.746094 Z M 0.0625 229.488281 " fill-opacity="1" fill-rule="evenodd"/></g><g clip-path="url(#c3ab52d08e)"><path fill="#f6cd05" d="M 0.0625 478.273438 L 0.0625 248.785156 L 149.929688 363.53125 Z M 0.0625 478.273438 " fill-opacity="1" fill-rule="evenodd"/></g><g clip-path="url(#8ecd58988f)"><path fill="#30782b" d="M 86.871094 0.00390625 L 149.929688 0.00390625 L 149.929688 48.28125 Z M 86.871094 0.00390625 " fill-opacity="1" fill-rule="evenodd"/></g><path fill="#f6cd05" d="M 21.359375 202.074219 L 69.769531 239.136719 L 21.359375 276.203125 Z M 21.359375 202.074219 " fill-opacity="1" fill-rule="evenodd"/><g clip-path="url(#2b68846361)"><path fill="#99c53c" d="M 149.929688 437.136719 L 74.996094 494.507812 L 149.929688 551.878906 Z M 149.929688 437.136719 " fill-opacity="1" fill-rule="evenodd"/></g><g clip-path="url(#4d93ebd005)"><path fill="#f6cd05" d="M 0.0625 733.640625 L 0.0625 504.15625 L 149.929688 618.898438 Z M 0.0625 733.640625 " fill-opacity="1" fill-rule="evenodd"/></g><g clip-path="url(#fccefa09a6)"><path fill="#30782b" d="M 149.929688 692.503906 L 74.996094 749.875 L 149.929688 807.246094 Z M 149.929688 692.503906 " fill-opacity="1" fill-rule="evenodd"/></g><g clip-path="url(#0c77919049)"><path fill="#99c53c" d="M 0.0625 989.007812 L 0.0625 759.523438 L 149.929688 874.265625 Z M 0.0625 989.007812 " fill-opacity="1" fill-rule="evenodd"/></g><path fill="#99c53c" d="M 21.359375 457.441406 L 69.769531 494.507812 L 21.359375 531.570312 Z M 21.359375 457.441406 " fill-opacity="1" fill-rule="evenodd"/><path fill="#30782b" d="M 21.359375 712.808594 L 69.769531 749.875 L 21.359375 786.9375 Z M 21.359375 712.808594 " fill-opacity="1" fill-rule="evenodd"/><g clip-path="url(#473bd749f7)"><path fill="#30782b" d="M 149.929688 47.515625 L 62.117188 114.746094 L 149.929688 181.976562 Z M 145.105469 57.285156 L 145.105469 172.207031 L 70.054688 114.746094 Z M 145.105469 57.285156 " fill-opacity="1" fill-rule="evenodd"/></g><g clip-path="url(#35f9a16787)"><path fill="#30782b" d="M 149.929688 296.296875 L 62.117188 363.53125 L 149.929688 430.761719 Z M 145.105469 306.070312 L 145.105469 420.988281 L 70.054688 363.53125 Z M 145.105469 306.070312 " fill-opacity="1" fill-rule="evenodd"/></g><path fill="#30782b" d="M 0.0625 338.988281 L 0.0625 328.613281 L 116.929688 239.136719 L 0.0625 149.660156 L 0.0625 139.289062 L 130.476562 239.136719 Z M 0.0625 338.988281 " fill-opacity="1" fill-rule="evenodd"/><g clip-path="url(#60e2371fde)"><path fill="#f6cd05" d="M 0.0625 90.761719 L 0.0625 80.386719 L 105.054688 0.00390625 L 118.601562 0.00390625 Z M 0.0625 90.761719 " fill-opacity="1" fill-rule="evenodd"/></g><path fill="#30782b" d="M 0.0625 594.355469 L 0.0625 583.984375 L 116.929688 494.507812 L 0.0625 405.03125 L 0.0625 394.65625 L 130.476562 494.507812 Z M 0.0625 594.355469 " fill-opacity="1" fill-rule="evenodd"/><path fill="#99c53c" d="M 0.0625 849.722656 L 0.0625 839.351562 L 116.929688 749.875 L 0.0625 660.398438 L 0.0625 650.027344 L 130.476562 749.875 Z M 0.0625 849.722656 " fill-opacity="1" fill-rule="evenodd"/><g clip-path="url(#cb96d2587c)"><path fill="#99c53c" d="M 149.929688 551.667969 L 62.117188 618.898438 L 149.929688 686.128906 Z M 145.105469 561.4375 L 145.105469 676.355469 L 70.054688 618.898438 Z M 145.105469 561.4375 " fill-opacity="1" fill-rule="evenodd"/></g><g clip-path="url(#6d563e3489)"><path fill="#f6cd05" d="M 149.929688 807.035156 L 62.117188 874.265625 L 149.929688 941.496094 Z M 145.105469 816.804688 L 145.105469 931.726562 L 70.054688 874.265625 Z M 145.105469 816.804688 " fill-opacity="1" fill-rule="evenodd"/></g><g clip-path="url(#39de763273)"><path fill="#f6cd05" d="M 149.933594 1565.144531 L 75 1507.773438 L 149.933594 1450.398438 Z M 149.933594 1565.144531 " fill-opacity="1" fill-rule="evenodd"/></g><path fill="#f6cd05" d="M 0.0625 1268.636719 L 0.0625 1498.125 L 149.933594 1383.378906 Z M 0.0625 1268.636719 " fill-opacity="1" fill-rule="evenodd"/><g clip-path="url(#51b68dcbb3)"><path fill="#f6cd05" d="M 21.363281 1544.835938 L 69.773438 1507.769531 L 21.363281 1470.707031 Z M 21.363281 1544.835938 " fill-opacity="1" fill-rule="evenodd"/></g><path fill="#99c53c" d="M 149.933594 1309.773438 L 75 1252.402344 L 149.933594 1195.03125 Z M 149.933594 1309.773438 " fill-opacity="1" fill-rule="evenodd"/><path fill="#f6cd05" d="M 0.0625 1013.269531 L 0.0625 1242.753906 L 149.933594 1128.011719 Z M 0.0625 1013.269531 " fill-opacity="1" fill-rule="evenodd"/><path fill="#30782b" d="M 149.933594 1054.40625 L 75 997.035156 L 149.933594 939.664062 Z M 149.933594 1054.40625 " fill-opacity="1" fill-rule="evenodd"/><g clip-path="url(#ba1ae2adab)"><path fill="#99c53c" d="M 0.0625 757.902344 L 0.0625 987.386719 L 149.933594 872.644531 Z M 0.0625 757.902344 " fill-opacity="1" fill-rule="evenodd"/></g><path fill="#99c53c" d="M 21.363281 1289.46875 L 69.773438 1252.402344 L 21.363281 1215.339844 Z M 21.363281 1289.46875 " fill-opacity="1" fill-rule="evenodd"/><path fill="#30782b" d="M 21.363281 1034.101562 L 69.773438 997.035156 L 21.363281 959.972656 Z M 21.363281 1034.101562 " fill-opacity="1" fill-rule="evenodd"/><path fill="#30782b" d="M 149.933594 1450.613281 L 62.121094 1383.378906 L 149.933594 1316.148438 Z M 145.109375 1440.839844 L 145.109375 1325.921875 L 70.058594 1383.378906 Z M 145.109375 1440.839844 " fill-opacity="1" fill-rule="evenodd"/><g clip-path="url(#f53029bdd9)"><path fill="#30782b" d="M 0.0625 1407.921875 L 0.0625 1418.296875 L 116.933594 1507.773438 L 0.0625 1597.25 L 0.0625 1607.621094 L 130.480469 1507.773438 Z M 0.0625 1407.921875 " fill-opacity="1" fill-rule="evenodd"/></g><path fill="#30782b" d="M 0.0625 1152.554688 L 0.0625 1162.925781 L 116.933594 1252.402344 L 0.0625 1341.878906 L 0.0625 1352.253906 L 130.480469 1252.402344 Z M 0.0625 1152.554688 " fill-opacity="1" fill-rule="evenodd"/><path fill="#99c53c" d="M 0.0625 897.1875 L 0.0625 907.558594 L 116.933594 997.035156 L 0.0625 1086.511719 L 0.0625 1096.882812 L 130.480469 997.035156 Z M 0.0625 897.1875 " fill-opacity="1" fill-rule="evenodd"/><path fill="#99c53c" d="M 149.933594 1195.242188 L 62.121094 1128.011719 L 149.933594 1060.78125 Z M 145.109375 1185.472656 L 145.109375 1070.554688 L 70.058594 1128.011719 Z M 145.109375 1185.472656 " fill-opacity="1" fill-rule="evenodd"/><path fill="#f6cd05" d="M 149.933594 939.875 L 62.121094 872.644531 L 149.933594 805.414062 Z M 145.109375 930.105469 L 145.109375 815.183594 L 70.058594 872.644531 Z M 145.109375 930.105469 " fill-opacity="1" fill-rule="evenodd"/></svg>