<svg xmlns="http://www.w3.org/2000/svg" xmlns:xlink="http://www.w3.org/1999/xlink" width="2560" zoomAndPan="magnify" viewBox="0 0 1920 1079.999946" height="1440" preserveAspectRatio="xMidYMid meet" version="1.0"><defs><clipPath id="83de28795b"><path d="M 579 0 L 1919.867188 0 L 1919.867188 1080 L 579 1080 Z M 579 0 " clip-rule="nonzero"/></clipPath><clipPath id="b2ffe161eb"><path d="M 705 0 L 1919.867188 0 L 1919.867188 1080 L 705 1080 Z M 705 0 " clip-rule="nonzero"/></clipPath><clipPath id="87cc7a09c9"><path d="M 831.214844 0 L 1919.867188 0 L 1919.867188 1080 L 831.214844 1080 Z M 831.214844 0 " clip-rule="nonzero"/></clipPath><clipPath id="1339b181f5"><path d="M 957 0 L 1919.867188 0 L 1919.867188 963 L 957 963 Z M 957 0 " clip-rule="nonzero"/></clipPath><clipPath id="97c1b784ab"><path d="M 1083 0 L 1919.867188 0 L 1919.867188 837 L 1083 837 Z M 1083 0 " clip-rule="nonzero"/></clipPath><clipPath id="15e2663088"><path d="M 1209 0 L 1919.867188 0 L 1919.867188 710.71875 L 1209 710.71875 Z M 1209 0 " clip-rule="nonzero"/></clipPath><clipPath id="c9d4277ed2"><path d="M 1335 0 L 1919.867188 0 L 1919.867188 585 L 1335 585 Z M 1335 0 " clip-rule="nonzero"/></clipPath><clipPath id="d166de4696"><path d="M 1461 0 L 1919.867188 0 L 1919.867188 459 L 1461 459 Z M 1461 0 " clip-rule="nonzero"/></clipPath><clipPath id="2f68eff8c0"><path d="M 1587 0 L 1919.867188 0 L 1919.867188 333 L 1587 333 Z M 1587 0 " clip-rule="nonzero"/></clipPath><clipPath id="0753d6a20c"><path d="M 1713 0 L 1919.867188 0 L 1919.867188 207 L 1713 207 Z M 1713 0 " clip-rule="nonzero"/></clipPath><clipPath id="3ad810f7ed"><path d="M 1839 0 L 1919.867188 0 L 1919.867188 81 L 1839 81 Z M 1839 0 " clip-rule="nonzero"/></clipPath></defs><path fill="#22559c" d="M 332.878906 1368 L 309.605469 1368 L 0.261719 1058.648438 L 0.261719 1035.382812 L 332.878906 1368 " fill-opacity="1" fill-rule="nonzero"/><path fill="#22559c" d="M 458.855469 1368 L 435.589844 1368 L 0.261719 932.671875 L 0.261719 909.398438 L 458.855469 1368 " fill-opacity="1" fill-rule="nonzero"/><path fill="#22559c" d="M 584.851562 1368 L 561.574219 1368 L 0.261719 806.6875 L 0.261719 783.421875 L 584.851562 1368 " fill-opacity="1" fill-rule="nonzero"/><path fill="#22559c" d="M 710.824219 1368 L 687.5625 1368 L 0.261719 680.703125 L 0.261719 657.4375 L 710.824219 1368 " fill-opacity="1" fill-rule="nonzero"/><path fill="#22559c" d="M 836.820312 1368 L 813.546875 1368 L 0.261719 554.714844 L 0.261719 531.453125 L 836.820312 1368 " fill-opacity="1" fill-rule="nonzero"/><path fill="#22559c" d="M 962.796875 1368 L 939.53125 1368 L 0.261719 428.730469 L 0.261719 405.46875 L 962.796875 1368 " fill-opacity="1" fill-rule="nonzero"/><path fill="#22559c" d="M 1088.78125 1368 L 1065.503906 1368 L 0.261719 302.746094 L 0.261719 279.480469 L 1088.78125 1368 " fill-opacity="1" fill-rule="nonzero"/><path fill="#22559c" d="M 1214.765625 1368 L 1191.492188 1368 L 0.261719 176.761719 L 0.261719 153.496094 L 1214.765625 1368 " fill-opacity="1" fill-rule="nonzero"/><path fill="#22559c" d="M 1340.75 1368 L 1317.476562 1368 L 0.261719 50.785156 L 0.261719 27.511719 L 1340.75 1368 " fill-opacity="1" fill-rule="nonzero"/><path fill="#22559c" d="M 1466.726562 1368 L 1443.460938 1368 L 75.460938 0 L 98.726562 0 L 1466.726562 1368 " fill-opacity="1" fill-rule="nonzero"/><path fill="#22559c" d="M 1592.722656 1368 L 1569.445312 1368 L 201.445312 0 L 224.710938 0 L 1592.722656 1368 " fill-opacity="1" fill-rule="nonzero"/><path fill="#22559c" d="M 1718.695312 1368 L 1695.429688 1368 L 327.429688 0 L 350.695312 0 L 1718.695312 1368 " fill-opacity="1" fill-rule="nonzero"/><path fill="#22559c" d="M 1844.679688 1368 L 1821.40625 1368 L 453.417969 0 L 476.679688 0 L 1844.679688 1368 " fill-opacity="1" fill-rule="nonzero"/><g clip-path="url(#83de28795b)"><path fill="#22559c" d="M 1919.878906 1317.214844 L 1919.878906 1340.488281 L 579.402344 0 L 602.664062 0 L 1919.878906 1317.214844 " fill-opacity="1" fill-rule="nonzero"/></g><g clip-path="url(#b2ffe161eb)"><path fill="#22559c" d="M 1919.878906 1191.226562 L 1919.878906 1214.503906 L 705.375 0 L 728.652344 0 L 1919.878906 1191.226562 " fill-opacity="1" fill-rule="nonzero"/></g><g clip-path="url(#87cc7a09c9)"><path fill="#22559c" d="M 1919.878906 1065.253906 L 1919.878906 1088.519531 L 831.363281 0 L 854.636719 0 L 1919.878906 1065.253906 " fill-opacity="1" fill-rule="nonzero"/></g><g clip-path="url(#1339b181f5)"><path fill="#22559c" d="M 1919.878906 939.257812 L 1919.878906 962.53125 L 957.347656 0 L 980.609375 0 L 1919.878906 939.257812 " fill-opacity="1" fill-rule="nonzero"/></g><g clip-path="url(#97c1b784ab)"><path fill="#22559c" d="M 1919.878906 813.28125 L 1919.878906 836.546875 L 1083.332031 0 L 1106.597656 0 L 1919.878906 813.28125 " fill-opacity="1" fill-rule="nonzero"/></g><g clip-path="url(#15e2663088)"><path fill="#22559c" d="M 1919.878906 687.296875 L 1919.878906 710.5625 L 1209.316406 0 L 1232.582031 0 L 1919.878906 687.296875 " fill-opacity="1" fill-rule="nonzero"/></g><g clip-path="url(#c9d4277ed2)"><path fill="#22559c" d="M 1919.878906 561.3125 L 1919.878906 584.578125 L 1335.300781 0 L 1358.566406 0 L 1919.878906 561.3125 " fill-opacity="1" fill-rule="nonzero"/></g><g clip-path="url(#d166de4696)"><path fill="#22559c" d="M 1919.878906 435.328125 L 1919.878906 458.601562 L 1461.289062 0 L 1484.550781 0 L 1919.878906 435.328125 " fill-opacity="1" fill-rule="nonzero"/></g><g clip-path="url(#2f68eff8c0)"><path fill="#22559c" d="M 1919.878906 309.351562 L 1919.878906 332.617188 L 1587.261719 0 L 1610.535156 0 L 1919.878906 309.351562 " fill-opacity="1" fill-rule="nonzero"/></g><g clip-path="url(#0753d6a20c)"><path fill="#22559c" d="M 1919.878906 183.367188 L 1919.878906 206.632812 L 1713.246094 0 L 1736.511719 0 L 1919.878906 183.367188 " fill-opacity="1" fill-rule="nonzero"/></g><g clip-path="url(#3ad810f7ed)"><path fill="#22559c" d="M 1919.878906 57.382812 L 1919.878906 80.648438 L 1839.234375 0 L 1862.496094 0 L 1919.878906 57.382812 " fill-opacity="1" fill-rule="nonzero"/></g></svg>